<?xml version="1.0" encoding="utf-8"?>
<!-- Generator: Adobe Illustrator 22.1.0, SVG Export Plug-In . SVG Version: 6.00 Build 0)  -->
<svg version="1.1" xmlns="http://www.w3.org/2000/svg" xmlns:xlink="http://www.w3.org/1999/xlink" x="0px" y="0px"
	 viewBox="0 0 261.2 108" style="enable-background:new 0 0 261.2 108;" xml:space="preserve">
<style type="text/css">
	.st0{fill:#2D2E2D;}
	.st1{fill:#FFFFFF;stroke:#FFFFFF;stroke-miterlimit:10;}
	.st2{font-family:'PrintClearly';}
	.st3{font-size:44.561px;}
	.st4{fill:#FFFFFF;}
	.st5{font-family:'HelveticaNeue';}
	.st6{font-size:21.19px;}
	.st7{fill:#F4F4F4;stroke:#F4F4F5;stroke-width:0.25;stroke-miterlimit:10;}
	.st8{display:none;}
	.st9{display:inline;}
	.st10{fill:#A1A0A0;stroke:#BABABA;stroke-width:0.25;stroke-miterlimit:10;}
	.st11{fill:#747474;stroke:#BABABA;stroke-width:0.25;stroke-miterlimit:10;}
	.st12{fill:#737374;stroke:#BABABA;stroke-width:0.25;stroke-miterlimit:10;}
	.st13{fill:#575757;stroke:#BABABA;stroke-width:0.25;stroke-miterlimit:10;}
	.st14{fill:#F4826E;stroke:#FFFFFF;stroke-width:0.25;stroke-miterlimit:10;}
	.st15{fill:#F0EA4F;stroke:#FFFFFF;stroke-width:0.25;stroke-miterlimit:10;}
	.st16{fill:#6E7DBC;stroke:#FFFFFF;stroke-width:0.25;stroke-miterlimit:10;}
	.st17{fill:#00B2D8;stroke:#FFFFFF;stroke-width:0.25;stroke-miterlimit:10;}
	.st18{fill:#A563A9;stroke:#FFFFFF;stroke-width:0.25;stroke-miterlimit:10;}
	.st19{fill:#2FB66F;stroke:#FFFFFF;stroke-width:0.25;stroke-miterlimit:10;}
	.st20{fill:#F4F4F4;}
	.st21{fill:#2B2C2B;stroke:#2B2C2B;stroke-miterlimit:10;}
	.st22{fill:#353635;}
	.st23{font-family:'HelveticaNeue-Medium';}
	.st24{fill:#1C1C1C;stroke:#1B1B1B;stroke-width:0.25;stroke-miterlimit:10;}
	.st25{fill:#5E5F5F;stroke:#333333;stroke-width:0.25;stroke-miterlimit:10;}
	.st26{fill:#8C8C8C;stroke:#2B2C2B;stroke-width:0.25;stroke-miterlimit:10;}
	.st27{fill:#5E5F5F;stroke:#4F4F4F;stroke-width:0.25;stroke-miterlimit:10;}
	.st28{fill:#8C8C8C;stroke:#4F4F4F;stroke-width:0.25;stroke-miterlimit:10;}
	.st29{fill:#3A3B3A;}
	.st30{fill:#4A4A4A;}
	.st31{fill:#F4826E;stroke:#2B2C2B;stroke-width:0.25;stroke-miterlimit:10;}
	.st32{fill:#F0EA4F;stroke:#2B2C2B;stroke-width:0.25;stroke-miterlimit:10;}
	.st33{fill:#6E7DBC;stroke:#2B2C2B;stroke-width:0.25;stroke-miterlimit:10;}
	.st34{fill:#00B2D8;stroke:#2B2C2B;stroke-width:0.25;stroke-miterlimit:10;}
	.st35{fill:#A563A9;stroke:#2B2C2B;stroke-width:0.25;stroke-miterlimit:10;}
	.st36{fill:#2FB66F;stroke:#2B2C2B;stroke-width:0.25;stroke-miterlimit:10;}
</style>
<g id="Layer_2">
	<g>
		<g>
			<path class="st0" d="M249.2,108H12c-6.6,0-12-5.4-12-12V12C0,5.4,5.4,0,12,0h237.2c6.6,0,12,5.4,12,12v84
				C261.2,102.6,255.8,108,249.2,108z"/>
		</g>
		<text transform="matrix(1 0 0 1 83.7554 80.041)" class="st1 st2 st3">ethereum</text>
		<text transform="matrix(1.0006 0 0 1 84.8555 42.8711)" class="st4 st5 st6">Built on</text>
		<g>
			<path class="st7" d="M19.5,54.2l23,13.6l0.5-0.5V17.7L42.5,16L19.5,54.2z"/>
			<path class="st7" d="M42.5,43.7v24.1l23-13.6L42.5,16V43.7z"/>
			<path class="st7" d="M19.5,58.6l23,32.4l0.3-0.8V72.5l-0.3-0.3L19.5,58.6z"/>
			<path class="st7" d="M65.6,58.6l-23,13.6V91L65.6,58.6z"/>
			<path class="st7" d="M42.5,43.7l-23,10.5l23,13.6V43.7z"/>
			<path class="st7" d="M42.5,43.7v24.1l23-13.6L42.5,43.7z"/>
		</g>
	</g>
</g>
<g id="Layer_1" class="st8">
	<g class="st9">
		<g>
			<path class="st0" d="M249.2,108H12c-6.6,0-12-5.4-12-12V12C0,5.4,5.4,0,12,0h237.2c6.6,0,12,5.4,12,12v84
				C261.2,102.6,255.8,108,249.2,108z"/>
		</g>
		<text transform="matrix(1 0 0 1 83.7554 80.041)" class="st1 st2 st3">ethereum</text>
		<text transform="matrix(1.0006 0 0 1 84.8555 42.8711)" class="st4 st5 st6">Built on</text>
		<g>
			<path class="st10" d="M19.5,54.2l23,13.6l0.5-0.5V17.7L42.5,16L19.5,54.2z"/>
			<path class="st11" d="M42.5,43.7v24.1l23-13.6L42.5,16V43.7z"/>
			<path class="st10" d="M19.5,58.6l23,32.4l0.3-0.8V72.5l-0.3-0.3L19.5,58.6z"/>
			<path class="st11" d="M65.6,58.6l-23,13.6V91L65.6,58.6z"/>
			<path class="st12" d="M42.5,43.7l-23,10.5l23,13.6V43.7z"/>
			<path class="st13" d="M42.5,43.7v24.1l23-13.6L42.5,43.7z"/>
		</g>
	</g>
</g>
<g id="Layer_3" class="st8">
	<g class="st9">
		<g>
			<path class="st0" d="M249.2,108H12c-6.6,0-12-5.4-12-12V12C0,5.4,5.4,0,12,0h237.2c6.6,0,12,5.4,12,12v84
				C261.2,102.6,255.8,108,249.2,108z"/>
		</g>
		<text transform="matrix(1 0 0 1 83.7554 80.041)" class="st1 st2 st3">ethereum</text>
		<text transform="matrix(1.0006 0 0 1 84.8555 42.8711)" class="st4 st5 st6">Built on</text>
		<g>
			<path class="st14" d="M42.6,15.4l-0.5,1.8v51.1l0.5,0.5l23.7-14L42.6,15.4z"/>
			<path class="st15" d="M42.6,15.4L18.9,54.8l23.7,14V44V15.4z"/>
			<path class="st16" d="M42.6,73.3l-0.3,0.4v18.2l0.3,0.9l23.7-33.4L42.6,73.3z"/>
			<path class="st17" d="M42.6,92.7V73.3l-23.7-14L42.6,92.7z"/>
			<path class="st18" d="M42.6,68.8l23.7-14L42.6,44L42.6,68.8z"/>
			<path class="st19" d="M18.9,54.8l23.7,14V44L18.9,54.8z"/>
		</g>
	</g>
</g>
<g id="Layer_4" class="st8">
	<g class="st9">
		<g>
			<path class="st20" d="M249.2,108H12c-6.6,0-12-5.4-12-12V12C0,5.4,5.4,0,12,0h237.2c6.6,0,12,5.4,12,12v84
				C261.2,102.6,255.8,108,249.2,108z"/>
		</g>
		<text transform="matrix(1 0 0 1 83.7554 81.041)" class="st21 st2 st3">ethereum</text>
		<text transform="matrix(1.0006 0 0 1 84.8555 42.8711)" class="st22 st23 st6">Built on</text>
		<g>
			<path class="st24" d="M43.5,15.9L43,17.6v50.5l0.5,0.5L67,54.7L43.5,15.9z"/>
			<path class="st24" d="M43.5,15.9L20.1,54.7l23.4,13.9V44.1V15.9z"/>
			<path class="st24" d="M43.5,73l-0.3,0.4v18l0.3,0.8l23.5-33L43.5,73z"/>
			<path class="st24" d="M43.5,92.2V73L20.1,59.2L43.5,92.2z"/>
			<path class="st24" d="M43.5,68.6L67,54.7L43.5,44.1V68.6z"/>
			<path class="st24" d="M20.1,54.7l23.4,13.9V44.1L20.1,54.7z"/>
		</g>
	</g>
</g>
<g id="Layer_5" class="st8">
	<g class="st9">
		<g>
			<path class="st20" d="M249.2,108H12c-6.6,0-12-5.4-12-12V12C0,5.4,5.4,0,12,0h237.2c6.6,0,12,5.4,12,12v84
				C261.2,102.6,255.8,108,249.2,108z"/>
		</g>
		<text transform="matrix(1 0 0 1 83.7554 81.041)" class="st21 st2 st3">ethereum</text>
		<text transform="matrix(1.0006 0 0 1 84.8555 42.8711)" class="st22 st23 st6">Built on</text>
		<g>
			<path class="st25" d="M43.5,15.9L43,17.6v50.5l0.5,0.5L67,54.7L43.5,15.9z"/>
			<path class="st26" d="M43.5,15.9L20.1,54.7l23.4,13.9V44.1V15.9z"/>
			<path class="st27" d="M43.5,73l-0.3,0.4v18l0.3,0.8l23.5-33L43.5,73z"/>
			<path class="st28" d="M43.5,92.2V73L20.1,59.2L43.5,92.2z"/>
			<path class="st29" d="M43.5,68.6L67,54.7L43.5,44.1V68.6z"/>
			<path class="st30" d="M20.1,54.7l23.4,13.9V44.1L20.1,54.7z"/>
		</g>
	</g>
</g>
<g id="Layer_6" class="st8">
	<g class="st9">
		<g>
			<path class="st20" d="M249.2,108H12c-6.6,0-12-5.4-12-12V12C0,5.4,5.4,0,12,0h237.2c6.6,0,12,5.4,12,12v84
				C261.2,102.6,255.8,108,249.2,108z"/>
		</g>
		<text transform="matrix(1 0 0 1 83.7554 81.041)" class="st21 st2 st3">ethereum</text>
		<text transform="matrix(1.0006 0 0 1 84.8555 42.8711)" class="st22 st23 st6">Built on</text>
		<g>
			<path class="st31" d="M42.6,15.4l-0.5,1.8v51.1l0.5,0.5l23.7-14L42.6,15.4z"/>
			<path class="st32" d="M42.6,15.4L18.9,54.8l23.7,14V44V15.4z"/>
			<path class="st33" d="M42.6,73.3l-0.3,0.4v18.2l0.3,0.9l23.7-33.4L42.6,73.3z"/>
			<path class="st34" d="M42.6,92.7V73.3l-23.7-14L42.6,92.7z"/>
			<path class="st35" d="M42.6,68.8l23.7-14L42.6,44L42.6,68.8z"/>
			<path class="st36" d="M18.9,54.8l23.7,14V44L18.9,54.8z"/>
		</g>
	</g>
</g>
</svg>
