<svg xmlns="http://www.w3.org/2000/svg" xmlns:xlink="http://www.w3.org/1999/xlink" viewBox="0 0 77.19 122.73"><defs><style>.cls-1{fill:url(#linear-gradient);}.cls-2{fill:url(#linear-gradient-2);}.cls-3{fill:url(#linear-gradient-3);}.cls-4{fill:url(#linear-gradient-4);}.cls-5{fill:url(#linear-gradient-5);}.cls-6{fill:url(#linear-gradient-6);}.cls-7{fill:url(#linear-gradient-7);}.cls-8{fill:url(#linear-gradient-8);}.cls-9{fill:url(#linear-gradient-9);}.cls-10{fill:url(#linear-gradient-10);}.cls-11{fill:url(#linear-gradient-11);}.cls-12{fill:url(#linear-gradient-12);}.cls-13{fill:url(#linear-gradient-13);}.cls-14{fill:url(#linear-gradient-14);}.cls-15{fill:url(#linear-gradient-15);}.cls-16{fill:url(#linear-gradient-16);}.cls-17{fill:url(#linear-gradient-17);}.cls-18{fill:url(#linear-gradient-18);}.cls-19{fill:url(#linear-gradient-19);}.cls-20{fill:url(#linear-gradient-20);}.cls-21{fill:url(#linear-gradient-21);}.cls-22{fill:url(#linear-gradient-22);}.cls-23{fill:#00edef;}</style><linearGradient id="linear-gradient" x1="58.36" y1="130.93" x2="58.36" y2="76.79" gradientUnits="userSpaceOnUse"><stop offset="0" stop-color="#ee2a7b"/><stop offset="1" stop-color="#00edef"/></linearGradient><linearGradient id="linear-gradient-2" x1="18.7" y1="130.93" x2="18.7" y2="76.79" xlink:href="#linear-gradient"/><linearGradient id="linear-gradient-3" x1="38.6" y1="0.56" x2="38.6" y2="84.19" gradientUnits="userSpaceOnUse"><stop offset="0" stop-color="#ee2a7b"/><stop offset="1" stop-color="#f9ed32"/></linearGradient><linearGradient id="linear-gradient-4" x1="49.12" y1="0.56" x2="49.12" y2="84.19" xlink:href="#linear-gradient-3"/><linearGradient id="linear-gradient-5" x1="62.82" y1="0.56" x2="62.82" y2="84.19" xlink:href="#linear-gradient-3"/><linearGradient id="linear-gradient-6" x1="55.41" y1="0.56" x2="55.41" y2="84.19" xlink:href="#linear-gradient-3"/><linearGradient id="linear-gradient-7" x1="14.37" y1="0.56" x2="14.37" y2="84.19" xlink:href="#linear-gradient-3"/><linearGradient id="linear-gradient-8" x1="28.08" y1="0.56" x2="28.08" y2="84.19" xlink:href="#linear-gradient-3"/><linearGradient id="linear-gradient-9" x1="21.78" y1="0.56" x2="21.78" y2="84.19" xlink:href="#linear-gradient-3"/><linearGradient id="linear-gradient-10" x1="38.6" y1="0.56" x2="38.6" y2="84.19" xlink:href="#linear-gradient-3"/><linearGradient id="linear-gradient-11" x1="56.64" y1="0.56" x2="56.64" y2="84.19" xlink:href="#linear-gradient-3"/><linearGradient id="linear-gradient-12" x1="60.46" y1="0.56" x2="60.46" y2="84.19" xlink:href="#linear-gradient-3"/><linearGradient id="linear-gradient-13" x1="50.36" y1="0.56" x2="50.36" y2="84.19" xlink:href="#linear-gradient-3"/><linearGradient id="linear-gradient-14" x1="49.18" y1="0.56" x2="49.18" y2="84.19" xlink:href="#linear-gradient-3"/><linearGradient id="linear-gradient-15" x1="42.5" y1="0.56" x2="42.5" y2="84.19" xlink:href="#linear-gradient-3"/><linearGradient id="linear-gradient-16" x1="20.55" y1="0.56" x2="20.55" y2="84.19" xlink:href="#linear-gradient-3"/><linearGradient id="linear-gradient-17" x1="16.74" y1="0.56" x2="16.74" y2="84.19" xlink:href="#linear-gradient-3"/><linearGradient id="linear-gradient-18" x1="26.83" y1="0.56" x2="26.83" y2="84.19" xlink:href="#linear-gradient-3"/><linearGradient id="linear-gradient-19" x1="28.02" y1="0.56" x2="28.02" y2="84.19" xlink:href="#linear-gradient-3"/><linearGradient id="linear-gradient-20" x1="34.69" y1="0.56" x2="34.69" y2="84.19" xlink:href="#linear-gradient-3"/><linearGradient id="linear-gradient-21" x1="52.91" y1="0.56" x2="52.91" y2="84.19" xlink:href="#linear-gradient-3"/><linearGradient id="linear-gradient-22" x1="24.28" y1="0.56" x2="24.28" y2="84.19" xlink:href="#linear-gradient-3"/></defs><title>Asset 2</title><g id="Layer_2" data-name="Layer 2"><g id="Layer_1-2" data-name="Layer 1"><polygon class="cls-1" points="39.54 94.18 39.54 122.73 77.19 72.4 39.54 94.18"/><polygon class="cls-2" points="0 72.4 37.41 122.4 37.41 94.18 0 72.4"/><path class="cls-3" d="M33.2,13.2l4.33-7.27V20.66a2.94,2.94,0,0,1,1.07-.19,2.89,2.89,0,0,1,1.06.19V5.93L44,13.2a3.07,3.07,0,0,1,1.82-1.09L38.6,0,31.37,12.11A3.12,3.12,0,0,1,33.2,13.2Z"/><path class="cls-4" d="M47,18.21l2.36,3.95a3.12,3.12,0,0,1,1.89-1l-2.42-4.07A3.18,3.18,0,0,1,47,18.21Z"/><path class="cls-5" d="M59.59,39.31l4.62,7.75A3.1,3.1,0,0,1,66.06,46l-4.64-7.78A3.12,3.12,0,0,1,59.59,39.31Z"/><path class="cls-6" d="M52.4,27.27l4.2,7a3.12,3.12,0,0,1,1.82-1.09l-4.26-7.14A3.07,3.07,0,0,1,52.4,27.27Z"/><path class="cls-7" d="M17.6,39.31a3.07,3.07,0,0,1-1.82-1.09L11.14,46A3.11,3.11,0,0,1,13,47.06Z"/><path class="cls-8" d="M30.2,18.21a3.12,3.12,0,0,1-1.82-1.09L26,21.19a3.09,3.09,0,0,1,1.89,1Z"/><path class="cls-9" d="M20.6,34.3l4.19-7A3.07,3.07,0,0,1,23,26.07l-4.26,7.14A3.18,3.18,0,0,1,20.6,34.3Z"/><path class="cls-10" d="M38.72,86.68,76.94,64.23,69,51a3.1,3.1,0,0,1-1.81,1.13l5.64,9.44L57.21,54.62a3.1,3.1,0,0,1-.93,1.91L73.15,64,39.66,83.67V49.18L51,54.2a3.11,3.11,0,0,1,.8-2L40.1,47.05,45,42.6a3.25,3.25,0,0,1-.86-1l-4.48,4.07V27.14l5.23,10.51A3,3,0,0,1,46,37.08L40.52,26a3.45,3.45,0,0,1-.86.48l-.28.09a3.33,3.33,0,0,1-.78.1,3.42,3.42,0,0,1-.79-.1l-.28-.09a3.45,3.45,0,0,1-.86-.48L31.16,37.08a3,3,0,0,1,1.14.57l5.23-10.51V45.72l-4.48-4.07a3.25,3.25,0,0,1-.86,1l4.91,4.45L25.38,52.23a3.11,3.11,0,0,1,.8,2l11.35-5V83.53L4.05,64l16.86-7.46A3,3,0,0,1,20,54.62L4.34,61.54,10,52.1A3,3,0,0,1,8.17,51L.25,64.24l.93.54Z"/><path class="cls-11" d="M64,47.36,49.84,40.79a2.9,2.9,0,0,1-.54,1.15l14.22,6.62A3.13,3.13,0,0,1,64,47.36Z"/><path class="cls-12" d="M64.22,51.08A3.18,3.18,0,0,1,63.61,50l-6.92,2.61a3.23,3.23,0,0,1,.48,1.18Z"/><path class="cls-13" d="M53.13,51.36l-4.39-8.84a3.14,3.14,0,0,1-1.14.57L52,52A3.25,3.25,0,0,1,53.13,51.36Z"/><path class="cls-14" d="M47.08,37a3,3,0,0,1,1.22.36l3-10a3,3,0,0,1-1.21-.41Z"/><path class="cls-15" d="M44.81,17.82a3.12,3.12,0,0,1-.94-.87l-3.67,4a3.21,3.21,0,0,1,.93.87Z"/><path class="cls-16" d="M27.35,40.79,13.21,47.36a3.13,3.13,0,0,1,.46,1.2l14.22-6.62A3,3,0,0,1,27.35,40.79Z"/><path class="cls-17" d="M13,51.08l7,2.66a3.08,3.08,0,0,1,.49-1.18L13.59,50A3.2,3.2,0,0,1,13,51.08Z"/><path class="cls-18" d="M28.45,42.52l-4.38,8.84a3.3,3.3,0,0,1,1.1.65l4.42-8.92A3.14,3.14,0,0,1,28.45,42.52Z"/><path class="cls-19" d="M30.12,37l-3-10a3.05,3.05,0,0,1-1.21.41l3,10A3,3,0,0,1,30.12,37Z"/><path class="cls-20" d="M33.32,17a3.21,3.21,0,0,1-.93.87l3.67,4a3.12,3.12,0,0,1,.94-.87Z"/><path class="cls-21" d="M56.3,37.78a3.18,3.18,0,0,1-.39-1.22l-6.38,2a3,3,0,0,1,.38,1.22Z"/><path class="cls-22" d="M20.9,37.78l6.38,2a3.17,3.17,0,0,1,.38-1.22l-6.38-2A3.17,3.17,0,0,1,20.9,37.78Z"/><path class="cls-23" d="M49.73,22.79a2.39,2.39,0,0,0-.51,1.48,2.43,2.43,0,0,0,1.05,2,2.4,2.4,0,0,0,1.21.41h.15a1.75,1.75,0,0,0,.4,0,2.4,2.4,0,0,0,1.73-1.24,2.37,2.37,0,0,0,.29-1.13,2.43,2.43,0,0,0-2.41-2.42h0A2.4,2.4,0,0,0,49.73,22.79Zm1.9.34a1.14,1.14,0,0,1,.23,2.25.86.86,0,0,1-.23,0,1.28,1.28,0,0,1-.39-.07,1.13,1.13,0,0,1-.56-.45,1.18,1.18,0,0,1-.18-.61c0-.06,0-.11,0-.16A1.14,1.14,0,0,1,51.63,23.13Z"/><path class="cls-23" d="M44.38,13.84A2.46,2.46,0,0,0,44,15.16a2.42,2.42,0,0,0,.37,1.27,2.51,2.51,0,0,0,.93.87,2.47,2.47,0,0,0,1.12.27h.19a2.41,2.41,0,0,0,1.83-1.09,2.37,2.37,0,0,0,.39-1.31,2.41,2.41,0,0,0-2.41-2.42h-.2A2.44,2.44,0,0,0,44.38,13.84Zm2,.18a1.15,1.15,0,0,1,1.11.93.75.75,0,0,1,0,.21,1.13,1.13,0,0,1-1.13,1.13h-.17a1.11,1.11,0,0,1-.55-.25,1.13,1.13,0,0,1-.39-.62s0,0,0-.05a1.36,1.36,0,0,1,0-.2A1.14,1.14,0,0,1,46.41,14Z"/><path class="cls-23" d="M64.62,47.66l0,0a2.31,2.31,0,0,0-.41,1.16,1.34,1.34,0,0,0,0,.2,2.25,2.25,0,0,0,.09.64,2.42,2.42,0,0,0,2.32,1.77h.26a2.44,2.44,0,0,0,1.8-1.14A2.47,2.47,0,0,0,69,49.06a2.41,2.41,0,0,0-2.42-2.41h-.13A2.39,2.39,0,0,0,64.62,47.66Zm2,.26a1.16,1.16,0,0,1,.87.4,1,1,0,0,1,.19.34,1.06,1.06,0,0,1,.08.4,1.15,1.15,0,0,1-1.14,1.14h0A1.06,1.06,0,0,1,66,50a1.16,1.16,0,0,1-.45-.53,1.82,1.82,0,0,1-.07-.25.34.34,0,0,0,0-.1v-.08a1.13,1.13,0,0,1,.37-.84A1.15,1.15,0,0,1,66.58,47.92Z"/><path class="cls-23" d="M51.71,54.51a2.41,2.41,0,0,0,4.82-.19h0c0-.11,0-.21,0-.32a2.42,2.42,0,0,0-.5-1.17,2.37,2.37,0,0,0-1.89-.93,2.48,2.48,0,0,0-.68.1,2.36,2.36,0,0,0-.95.54.93.93,0,0,0-.14.14,2.39,2.39,0,0,0-.65,1.64C51.7,54.38,51.71,54.44,51.71,54.51ZM54,53.18h.15a1.13,1.13,0,0,1,.55.15,1.1,1.1,0,0,1,.39.35,1.15,1.15,0,0,1,.19.64s0,.11,0,.16A1.14,1.14,0,0,1,53,54.31,1.35,1.35,0,0,1,53,54,1.16,1.16,0,0,1,54,53.18Z"/><path class="cls-23" d="M25.17,26.64a1.61,1.61,0,0,0,.39,0h.15A2.4,2.4,0,0,0,28,24.27a2.44,2.44,0,0,0-.5-1.48,2.41,2.41,0,0,0-1.91-.94h0a2.42,2.42,0,0,0-2.4,2.42,2.36,2.36,0,0,0,.28,1.13A2.4,2.4,0,0,0,25.17,26.64Zm.39-3.51a1.14,1.14,0,0,1,1.12,1,.78.78,0,0,1,0,.16,1.1,1.1,0,0,1-.19.61,1.13,1.13,0,0,1-.56.45,1.23,1.23,0,0,1-.39.07.86.86,0,0,1-.23,0,1.14,1.14,0,0,1,.23-2.25Z"/><path class="cls-23" d="M30.59,17.56h.2a2.43,2.43,0,0,0,1.11-.27,2.46,2.46,0,0,0,.94-.87,2.5,2.5,0,0,0,.36-1.27,2.46,2.46,0,0,0-.39-1.32A2.44,2.44,0,0,0,31,12.75h-.19a2.42,2.42,0,0,0-2.42,2.42,2.46,2.46,0,0,0,.39,1.31A2.41,2.41,0,0,0,30.59,17.56Zm-.52-3.28a1.13,1.13,0,0,1,1.85.88,1.36,1.36,0,0,1,0,.2.09.09,0,0,1,0,.05,1.13,1.13,0,0,1-.39.62,1.08,1.08,0,0,1-.54.25h-.17a1.13,1.13,0,0,1-1.14-1.13,1.49,1.49,0,0,1,0-.21A1.16,1.16,0,0,1,30.07,14.28Z"/><path class="cls-23" d="M10.35,51.46h.26a2.42,2.42,0,0,0,1.66-.66,2.38,2.38,0,0,0,.66-1.11,2.25,2.25,0,0,0,.09-.64,1.34,1.34,0,0,0,0-.2,2.31,2.31,0,0,0-.41-1.16l0,0a2.39,2.39,0,0,0-1.82-1h-.14A2.41,2.41,0,0,0,8.2,49.06a2.37,2.37,0,0,0,.36,1.26A2.4,2.4,0,0,0,10.35,51.46Zm-.6-3.14a1.14,1.14,0,0,1,.86-.4,1.16,1.16,0,0,1,1.14,1.14s0,0,0,.08,0,.07,0,.1a1.82,1.82,0,0,1-.07.25,1.16,1.16,0,0,1-.45.53,1,1,0,0,1-.58.17h0a1.15,1.15,0,0,1-1.14-1.14,1.21,1.21,0,0,1,.28-.74Z"/><path class="cls-23" d="M21.61,56.22a2.41,2.41,0,0,0,3.87-1.71,1.34,1.34,0,0,0,0-.2,2.39,2.39,0,0,0-.65-1.64l-.13-.14a2.5,2.5,0,0,0-.95-.54,2.6,2.6,0,0,0-.68-.1,2.39,2.39,0,0,0-1.9.93A2.31,2.31,0,0,0,20.69,54a1.73,1.73,0,0,0,0,.32h0A2.44,2.44,0,0,0,21.61,56.22Zm1.47-3h.15a1.14,1.14,0,0,1,.94.84.92.92,0,0,1,0,.29,1.13,1.13,0,0,1-2.25.16.88.88,0,0,1,0-.16,1.08,1.08,0,0,1,.2-.64,1.16,1.16,0,0,1,.38-.35A1.14,1.14,0,0,1,23.08,53.17Z"/><path class="cls-23" d="M37,25.37a2.58,2.58,0,0,0,.54.37,2.49,2.49,0,0,0,.6.2,2.42,2.42,0,0,0,.47,0,2.31,2.31,0,0,0,.46,0,2.49,2.49,0,0,0,.6-.2,2.58,2.58,0,0,0,.54-.37,2.38,2.38,0,0,0,.81-1.8,2.5,2.5,0,0,0-.36-1.27,2.46,2.46,0,0,0-.94-.87l-.05,0a2.39,2.39,0,0,0-2.13,0l-.05,0a2.51,2.51,0,0,0-.93.87A2.39,2.39,0,0,0,37,25.37Zm.54-2.19a1.13,1.13,0,0,1,.9-.73l.17,0,.17,0a1.13,1.13,0,0,1,.89.73.57.57,0,0,1,0,.14,1.1,1.1,0,0,1,0,.64.8.8,0,0,1-.08.16,1.11,1.11,0,0,1-.83.57l-.15,0-.16,0a1.11,1.11,0,0,1-.83-.57.8.8,0,0,1-.08-.16,1.23,1.23,0,0,1-.07-.39,1,1,0,0,1,0-.25C37.5,23.27,37.52,23.22,37.53,23.18Z"/><path class="cls-23" d="M30.37,42.5a2.36,2.36,0,0,0,1.29-.38,2.46,2.46,0,0,0,1.13-2A2.41,2.41,0,0,0,32,38.29a2.33,2.33,0,0,0-1.14-.57,2.42,2.42,0,0,0-.47,0h-.05A2.31,2.31,0,0,0,29.1,38a2.44,2.44,0,0,0-.76.74A2.51,2.51,0,0,0,28,40v.08a1.75,1.75,0,0,0,0,.4,2.38,2.38,0,0,0,.53,1.16,1.81,1.81,0,0,0,.24.24,2.42,2.42,0,0,0,1.14.57A2.31,2.31,0,0,0,30.37,42.5Zm-.58-1.44a1.15,1.15,0,0,1-.4-.42.94.94,0,0,1-.1-.23,1.61,1.61,0,0,1-.06-.33c0-.06,0-.12,0-.18a1.22,1.22,0,0,1,.24-.53l.18-.18a1.18,1.18,0,0,1,.55-.23l.15,0a2,2,0,0,1,.35.06,1.16,1.16,0,0,1,.64.53,1.13,1.13,0,0,1,.15.55.78.78,0,0,1,0,.16,1.11,1.11,0,0,1-.85.94l-.11,0-.16,0A1.15,1.15,0,0,1,29.79,41.06Z"/><path class="cls-23" d="M46.82,37.67a2.5,2.5,0,0,0-.47,0,2.33,2.33,0,0,0-1.14.57,2.4,2.4,0,0,0-.8,1.79,2.31,2.31,0,0,0,.26,1.09,2.39,2.39,0,0,0,.86.95,2.36,2.36,0,0,0,1.29.38,2.47,2.47,0,0,0,1.6-.62,1.36,1.36,0,0,0,.24-.24,2.49,2.49,0,0,0,.54-1.16,2.6,2.6,0,0,0,0-.4V40a2.4,2.4,0,0,0-1.13-2,2.37,2.37,0,0,0-1.23-.37Zm.7,1.52a1,1,0,0,1,.18.18,1.12,1.12,0,0,1,.24.53,1.1,1.1,0,0,1,0,.18.88.88,0,0,1-.06.33.92.92,0,0,1-.09.23,1.27,1.27,0,0,1-.41.42,1.15,1.15,0,0,1-.58.16l-.16,0-.1,0a1.12,1.12,0,0,1-.86-.94.78.78,0,0,1,0-.16,1.13,1.13,0,0,1,.15-.55,1.14,1.14,0,0,1,.65-.53,1.86,1.86,0,0,1,.34-.06L47,39A1.13,1.13,0,0,1,47.52,39.19Z"/><path class="cls-23" d="M57,35a2.46,2.46,0,0,0-.39,1.31s0,.06,0,.09A2.34,2.34,0,0,0,57,37.57a2.42,2.42,0,0,0,2,1.11h.19A2.44,2.44,0,0,0,61,37.58a2.46,2.46,0,0,0,.39-1.32A2.41,2.41,0,0,0,59,33.85h-.2A2.41,2.41,0,0,0,57,35Zm2,.18a1.11,1.11,0,0,1,.71.26,1.08,1.08,0,0,1,.4.67.68.68,0,0,1,0,.2A1.14,1.14,0,0,1,59,37.4a1.13,1.13,0,0,1-.7-.25h0a1.16,1.16,0,0,1-.4-.67,1.49,1.49,0,0,1,0-.21,1.26,1.26,0,0,1,.05-.33A1.14,1.14,0,0,1,59,35.13Z"/><path class="cls-23" d="M18,38.67h.2a2.4,2.4,0,0,0,2-1.11,2.45,2.45,0,0,0,.39-1.22v-.09A2.37,2.37,0,0,0,20.21,35a2.41,2.41,0,0,0-1.83-1.09h-.19a2.41,2.41,0,0,0-2.42,2.41,2.46,2.46,0,0,0,.39,1.32A2.44,2.44,0,0,0,18,38.67Zm-.52-3.28a1.13,1.13,0,0,1,1.8.54,1.26,1.26,0,0,1,.05.33.75.75,0,0,1,0,.21,1.11,1.11,0,0,1-.4.67h0a1.17,1.17,0,0,1-.7.25,1.14,1.14,0,0,1-1.14-1.14,1.36,1.36,0,0,1,0-.2A1.13,1.13,0,0,1,17.47,35.39Z"/></g></g></svg>